<svg id="svg" version="1.1" xmlns="http://www.w3.org/2000/svg" xmlns:xlink="http://www.w3.org/1999/xlink" width="400" height="400" viewBox="0, 0, 400,400"><g id="svgg"><path id="path0" d="M208.400 48.391 C 63.221 48.632,74.335 48.427,70.644 50.940 C 69.788 51.523,68.924 52.000,68.722 52.000 C 68.521 52.000,66.991 52.900,65.323 54.000 C 63.654 55.100,62.073 56.000,61.810 56.000 C 61.176 56.000,53.161 63.861,52.226 65.400 C 51.825 66.060,51.077 67.052,50.565 67.605 C 48.279 70.069,48.405 61.665,48.425 210.213 C 48.437 306.190,48.569 346.778,48.870 347.366 C 49.528 348.649,51.274 350.406,52.558 351.076 C 54.074 351.868,79.494 351.877,81.901 351.087 C 84.851 350.119,87.009 343.945,86.611 337.613 C 86.479 335.516,86.280 320.574,86.168 304.409 L 85.966 275.019 87.009 270.809 C 88.749 263.786,89.527 262.893,97.402 258.885 C 99.874 257.627,103.247 257.580,191.000 257.590 L 279.000 257.600 281.184 256.580 C 287.681 253.544,288.778 250.546,288.031 237.876 C 287.611 230.762,287.670 230.869,283.065 228.849 L 279.305 227.200 192.152 227.202 C 89.719 227.205,94.885 227.414,90.419 223.079 C 88.472 221.189,88.215 220.645,87.615 217.139 C 87.376 215.742,86.907 213.520,86.573 212.200 C 86.039 210.094,85.982 202.685,86.104 151.800 L 86.243 93.800 87.263 90.150 C 89.079 83.658,90.907 82.082,100.201 78.992 L 105.680 77.171 225.602 77.216 C 356.688 77.265,346.217 77.447,348.850 75.072 C 351.284 72.876,351.388 72.460,351.543 64.304 C 351.743 53.840,351.044 51.067,347.727 49.148 C 345.991 48.143,348.698 48.158,208.400 48.391 M118.000 138.939 C 112.356 140.983,111.423 143.086,111.409 153.800 C 111.397 162.961,111.820 164.487,114.914 166.473 L 116.981 167.800 146.190 168.109 C 162.256 168.278,202.130 168.501,234.800 168.604 L 294.200 168.790 299.162 169.795 C 302.551 170.481,304.516 171.091,305.362 171.722 C 306.043 172.229,307.454 173.136,308.498 173.738 C 310.757 175.039,311.405 176.174,312.377 180.524 C 312.780 182.326,313.325 184.340,313.589 185.000 C 314.272 186.703,314.320 302.654,313.640 303.926 C 313.385 304.403,312.733 306.537,312.192 308.670 C 310.948 313.574,310.227 314.387,306.078 315.559 C 304.385 316.037,302.010 316.917,300.800 317.514 L 298.600 318.600 207.782 318.800 C 121.259 318.991,116.913 319.034,115.868 319.719 C 111.977 322.268,111.404 324.022,111.402 333.400 C 111.399 343.830,112.513 346.324,118.032 348.245 C 120.790 349.205,313.369 349.450,318.500 348.500 C 319.985 348.225,322.366 347.800,323.790 347.557 C 325.371 347.286,327.111 346.650,328.255 345.924 C 329.342 345.235,331.240 344.524,332.771 344.232 C 335.543 343.704,336.953 343.123,337.483 342.293 C 337.657 342.019,338.455 341.307,339.256 340.711 C 341.273 339.209,343.105 337.326,344.284 335.546 C 344.832 334.717,345.708 333.759,346.232 333.416 C 346.755 333.073,347.477 332.209,347.836 331.496 C 348.196 330.783,348.991 329.660,349.603 329.000 C 350.296 328.253,350.883 327.000,351.158 325.680 C 351.643 323.354,351.741 166.781,351.260 162.897 C 350.995 160.756,350.844 160.503,346.694 155.260 C 345.762 154.082,344.512 152.393,343.916 151.505 C 343.320 150.618,342.330 149.582,341.716 149.203 C 341.102 148.824,340.240 148.109,339.800 147.613 C 339.360 147.117,337.740 146.082,336.200 145.313 C 334.660 144.544,333.025 143.570,332.567 143.150 C 332.109 142.730,330.489 142.040,328.967 141.617 C 327.445 141.195,325.120 140.343,323.800 139.724 L 321.400 138.600 220.400 138.516 C 139.697 138.449,119.119 138.534,118.000 138.939 " stroke="none" fill="#faf4f4" fill-rule="evenodd"></path><path id="path1" d="M78.400 45.630 C 77.630 45.822,75.843 46.172,74.429 46.408 C 71.376 46.919,65.448 49.838,61.209 52.918 C 59.633 54.063,57.662 55.490,56.829 56.088 C 52.580 59.140,48.142 65.072,46.453 69.953 L 45.400 73.000 45.400 151.600 C 45.400 220.044,45.478 230.536,46.000 232.800 C 46.800 236.269,46.799 249.860,45.998 252.200 C 45.550 253.508,45.423 262.207,45.301 299.824 L 45.152 345.848 46.004 348.024 C 48.430 354.220,50.221 354.801,66.874 354.796 C 83.399 354.790,82.800 354.880,85.650 351.975 C 89.173 348.384,88.981 350.862,88.991 308.800 C 89.001 266.848,88.842 268.997,92.170 265.800 C 93.871 264.166,95.010 263.516,98.391 262.248 L 102.530 260.697 189.365 260.753 C 280.493 260.812,281.989 260.786,284.961 259.044 C 290.325 255.901,291.435 251.708,290.768 237.115 C 290.364 228.267,289.339 226.745,282.616 225.014 C 280.509 224.471,269.973 224.399,191.816 224.390 C 105.626 224.380,103.314 224.360,100.000 223.600 C 98.130 223.171,96.100 222.816,95.489 222.810 C 92.594 222.783,90.128 218.834,89.363 213.000 C 88.674 207.752,88.555 98.220,89.232 93.350 C 90.148 86.768,93.573 83.693,101.894 81.981 C 105.721 81.193,107.377 81.183,225.130 81.209 L 344.488 81.236 347.557 79.796 C 350.718 78.312,351.985 76.972,353.755 73.239 C 354.828 70.975,354.694 54.776,353.579 51.947 C 352.352 48.833,351.371 47.698,348.775 46.388 L 346.423 45.200 213.111 45.241 C 138.920 45.264,79.179 45.436,78.400 45.630 M349.266 47.802 C 350.402 48.590,351.380 49.753,352.100 51.174 L 353.200 53.343 353.200 62.716 L 353.200 72.088 351.913 74.503 C 350.535 77.088,349.505 77.915,346.026 79.225 C 343.854 80.044,343.820 80.044,225.026 80.016 L 106.200 79.988 101.952 80.952 C 92.523 83.093,89.463 85.982,88.421 93.729 C 87.707 99.036,87.866 207.954,88.595 213.084 C 89.742 221.149,91.465 223.089,98.652 224.410 C 102.854 225.182,105.019 225.200,191.177 225.195 L 279.400 225.190 283.000 226.264 C 289.503 228.205,289.772 228.781,289.788 240.800 C 289.805 253.672,289.063 255.823,283.691 258.469 L 281.800 259.400 191.600 259.600 C 109.462 259.782,101.256 259.858,99.787 260.452 C 94.020 262.781,91.120 264.621,90.097 266.599 C 88.154 270.354,88.201 269.318,88.192 308.800 L 88.185 345.800 87.033 348.311 C 84.579 353.660,84.415 353.700,65.768 353.525 L 52.535 353.400 50.590 352.196 C 49.208 351.342,48.347 350.417,47.622 349.007 L 46.600 347.022 46.483 304.211 C 46.385 268.434,46.471 259.739,47.007 251.288 C 47.597 241.995,47.596 240.554,47.003 233.488 C 46.034 221.956,46.277 73.322,47.270 70.127 C 49.953 61.485,65.416 48.948,75.600 47.154 C 79.106 46.537,89.764 46.490,213.466 46.543 L 347.531 46.600 349.266 47.802 M114.212 137.309 C 110.599 139.262,109.644 140.891,108.972 146.251 C 108.024 153.803,108.401 160.873,110.015 165.829 C 110.657 167.802,114.556 171.012,117.200 171.744 C 117.750 171.897,157.350 172.109,205.200 172.216 C 300.628 172.429,299.943 172.412,304.104 174.622 C 308.477 176.944,309.808 178.491,310.451 182.000 C 311.284 186.552,311.262 303.009,310.427 306.800 C 309.469 311.150,307.487 312.840,301.400 314.495 L 296.600 315.800 207.000 315.840 C 107.357 315.885,114.415 315.688,111.695 318.508 C 108.058 322.279,107.181 342.757,110.469 347.147 C 113.133 350.704,116.664 352.168,124.196 352.841 C 132.630 353.593,313.225 353.086,316.800 352.300 C 318.450 351.937,321.552 351.267,323.694 350.813 C 326.190 350.283,328.345 349.539,329.694 348.741 C 330.852 348.056,332.947 347.062,334.349 346.533 C 340.822 344.088,345.862 339.659,350.915 331.975 C 354.109 327.119,353.800 336.549,353.800 243.800 L 353.800 161.000 352.275 158.104 C 349.391 152.628,342.875 145.655,338.656 143.530 C 337.305 142.850,335.461 141.787,334.557 141.167 C 333.653 140.547,332.033 139.687,330.957 139.256 C 329.881 138.824,327.830 137.960,326.400 137.335 L 323.800 136.200 220.200 136.109 L 116.600 136.017 114.212 137.309 M325.600 138.126 C 327.030 138.745,329.173 139.599,330.362 140.025 C 331.551 140.451,333.081 141.220,333.762 141.734 C 334.443 142.247,336.320 143.358,337.934 144.201 C 341.163 145.889,345.556 149.953,348.120 153.624 C 352.266 159.559,352.484 159.997,352.861 163.162 C 353.441 168.026,353.108 325.885,352.514 327.539 C 351.975 329.041,350.203 331.586,347.771 334.349 C 346.875 335.367,345.525 337.077,344.771 338.149 C 342.805 340.945,337.009 345.009,334.068 345.655 C 332.821 345.928,330.943 346.736,329.895 347.448 C 328.848 348.161,327.048 348.929,325.895 349.155 C 324.743 349.381,322.810 349.753,321.600 349.982 C 320.390 350.211,318.410 350.714,317.200 351.099 C 315.129 351.759,309.312 351.800,217.800 351.800 L 120.600 351.800 117.318 350.472 C 110.379 347.664,109.264 344.841,109.711 331.201 C 109.966 323.438,110.534 321.068,112.570 319.280 C 115.262 316.916,109.437 317.056,206.600 317.027 L 296.200 317.000 300.400 315.672 C 308.839 313.003,309.462 312.574,310.608 308.631 C 311.939 304.052,311.995 301.462,311.996 244.600 C 311.997 173.533,312.431 178.093,305.289 174.152 C 299.747 171.094,304.816 171.254,205.800 171.015 C 112.769 170.790,116.825 170.893,113.947 168.684 C 110.423 165.979,109.631 163.324,109.627 154.200 C 109.623 144.317,110.300 141.497,113.251 139.112 C 116.281 136.664,108.486 136.823,220.400 136.916 L 323.000 137.000 325.600 138.126 " stroke="none" fill="#d95b65" fill-rule="evenodd"></path><path id="path2" d="M75.600 47.154 C 65.416 48.948,49.953 61.485,47.270 70.127 C 46.277 73.322,46.034 221.956,47.003 233.488 C 47.596 240.554,47.597 241.995,47.007 251.288 C 46.471 259.739,46.385 268.434,46.483 304.211 L 46.600 347.022 47.622 349.007 C 48.347 350.417,49.208 351.342,50.590 352.196 L 52.535 353.400 65.768 353.525 C 84.415 353.700,84.579 353.660,87.033 348.311 L 88.185 345.800 88.192 308.800 C 88.201 269.318,88.154 270.354,90.097 266.599 C 91.120 264.621,94.020 262.781,99.787 260.452 C 101.256 259.858,109.462 259.782,191.600 259.600 L 281.800 259.400 283.691 258.469 C 289.063 255.823,289.805 253.672,289.788 240.800 C 289.772 228.781,289.503 228.205,283.000 226.264 L 279.400 225.190 191.177 225.195 C 105.019 225.200,102.854 225.182,98.652 224.410 C 91.465 223.089,89.742 221.149,88.595 213.084 C 87.866 207.954,87.707 99.036,88.421 93.729 C 89.463 85.982,92.523 83.093,101.952 80.952 L 106.200 79.988 225.026 80.016 C 343.820 80.044,343.854 80.044,346.026 79.225 C 349.505 77.915,350.535 77.088,351.913 74.503 L 353.200 72.088 353.200 62.716 L 353.200 53.343 352.100 51.174 C 351.380 49.753,350.402 48.590,349.266 47.802 L 347.531 46.600 213.466 46.543 C 89.764 46.490,79.106 46.537,75.600 47.154 M347.727 49.148 C 351.044 51.067,351.743 53.840,351.543 64.304 C 351.388 72.460,351.284 72.876,348.850 75.072 C 346.217 77.447,356.688 77.265,225.602 77.216 L 105.680 77.171 100.201 78.992 C 90.907 82.082,89.079 83.658,87.263 90.150 L 86.243 93.800 86.104 151.800 C 85.982 202.685,86.039 210.094,86.573 212.200 C 86.907 213.520,87.376 215.742,87.615 217.139 C 88.215 220.645,88.472 221.189,90.419 223.079 C 94.885 227.414,89.719 227.205,192.152 227.202 L 279.305 227.200 283.065 228.849 C 287.670 230.869,287.611 230.762,288.031 237.876 C 288.778 250.546,287.681 253.544,281.184 256.580 L 279.000 257.600 191.000 257.590 C 103.247 257.580,99.874 257.627,97.402 258.885 C 89.527 262.893,88.749 263.786,87.009 270.809 L 85.966 275.019 86.168 304.409 C 86.280 320.574,86.479 335.516,86.611 337.613 C 87.009 343.945,84.851 350.119,81.901 351.087 C 79.494 351.877,54.074 351.868,52.558 351.076 C 51.274 350.406,49.528 348.649,48.870 347.366 C 48.569 346.778,48.437 306.190,48.425 210.213 C 48.405 61.665,48.279 70.069,50.565 67.605 C 51.077 67.052,51.825 66.060,52.226 65.400 C 53.161 63.861,61.176 56.000,61.810 56.000 C 62.073 56.000,63.654 55.100,65.323 54.000 C 66.991 52.900,68.521 52.000,68.722 52.000 C 68.924 52.000,69.788 51.523,70.644 50.940 C 74.335 48.427,63.221 48.632,208.400 48.391 C 348.698 48.158,345.991 48.143,347.727 49.148 M116.251 137.385 C 110.915 139.294,109.622 142.576,109.627 154.200 C 109.631 163.324,110.423 165.979,113.947 168.684 C 116.825 170.893,112.769 170.790,205.800 171.015 C 304.816 171.254,299.747 171.094,305.289 174.152 C 312.431 178.093,311.997 173.533,311.996 244.600 C 311.995 301.462,311.939 304.052,310.608 308.631 C 309.462 312.574,308.839 313.003,300.400 315.672 L 296.200 317.000 206.600 317.027 C 109.437 317.056,115.262 316.916,112.570 319.280 C 110.534 321.068,109.966 323.438,109.711 331.201 C 109.264 344.841,110.379 347.664,117.318 350.472 L 120.600 351.800 217.800 351.800 C 309.312 351.800,315.129 351.759,317.200 351.099 C 318.410 350.714,320.390 350.211,321.600 349.982 C 322.810 349.753,324.743 349.381,325.895 349.155 C 327.048 348.929,328.848 348.161,329.895 347.448 C 330.943 346.736,332.821 345.928,334.068 345.655 C 337.009 345.009,342.805 340.945,344.771 338.149 C 345.525 337.077,346.875 335.367,347.771 334.349 C 350.203 331.586,351.975 329.041,352.514 327.539 C 353.108 325.885,353.441 168.026,352.861 163.162 C 352.484 159.997,352.266 159.559,348.120 153.624 C 345.556 149.953,341.163 145.889,337.934 144.201 C 336.320 143.358,334.443 142.247,333.762 141.734 C 333.081 141.220,331.551 140.451,330.362 140.025 C 329.173 139.599,327.030 138.745,325.600 138.126 L 323.000 137.000 220.400 136.916 C 133.829 136.844,117.558 136.918,116.251 137.385 M323.800 139.724 C 325.120 140.343,327.445 141.195,328.967 141.617 C 330.489 142.040,332.109 142.730,332.567 143.150 C 333.025 143.570,334.660 144.544,336.200 145.313 C 337.740 146.082,339.360 147.117,339.800 147.613 C 340.240 148.109,341.102 148.824,341.716 149.203 C 342.330 149.582,343.320 150.618,343.916 151.505 C 344.512 152.393,345.762 154.082,346.694 155.260 C 350.844 160.503,350.995 160.756,351.260 162.897 C 351.741 166.781,351.643 323.354,351.158 325.680 C 350.883 327.000,350.296 328.253,349.603 329.000 C 348.991 329.660,348.196 330.783,347.836 331.496 C 347.477 332.209,346.755 333.073,346.232 333.416 C 345.708 333.759,344.832 334.717,344.284 335.546 C 343.105 337.326,341.273 339.209,339.256 340.711 C 338.455 341.307,337.657 342.019,337.483 342.293 C 336.953 343.123,335.543 343.704,332.771 344.232 C 331.240 344.524,329.342 345.235,328.255 345.924 C 327.111 346.650,325.371 347.286,323.790 347.557 C 322.366 347.800,319.985 348.225,318.500 348.500 C 313.369 349.450,120.790 349.205,118.032 348.245 C 112.513 346.324,111.399 343.830,111.402 333.400 C 111.404 324.022,111.977 322.268,115.868 319.719 C 116.913 319.034,121.259 318.991,207.782 318.800 L 298.600 318.600 300.800 317.514 C 302.010 316.917,304.385 316.037,306.078 315.559 C 310.227 314.387,310.948 313.574,312.192 308.670 C 312.733 306.537,313.385 304.403,313.640 303.926 C 314.320 302.654,314.272 186.703,313.589 185.000 C 313.325 184.340,312.780 182.326,312.377 180.524 C 311.405 176.174,310.757 175.039,308.498 173.738 C 307.454 173.136,306.043 172.229,305.362 171.722 C 304.516 171.091,302.551 170.481,299.162 169.795 L 294.200 168.790 234.800 168.604 C 202.130 168.501,162.256 168.278,146.190 168.109 L 116.981 167.800 114.914 166.473 C 111.820 164.487,111.397 162.961,111.409 153.800 C 111.423 143.086,112.356 140.983,118.000 138.939 C 119.119 138.534,139.697 138.449,220.400 138.516 L 321.400 138.600 323.800 139.724 " stroke="none" fill="#e47b84" fill-rule="evenodd"></path><path id="path3" d="M9.200 1.000 C 9.200 1.993,9.173 2.000,5.600 2.000 L 2.000 2.000 2.000 5.600 C 2.000 9.173,1.993 9.200,1.000 9.200 L 0.000 9.200 0.000 200.000 L 0.000 390.800 1.000 390.800 C 1.993 390.800,2.000 390.827,2.000 394.400 L 2.000 398.000 5.600 398.000 C 9.173 398.000,9.200 398.007,9.200 399.000 L 9.200 400.000 200.000 400.000 L 390.800 400.000 390.800 399.000 C 390.800 398.007,390.827 398.000,394.400 398.000 L 398.000 398.000 398.000 394.400 C 398.000 390.827,398.007 390.800,399.000 390.800 L 400.000 390.800 400.000 200.000 L 400.000 9.200 399.000 9.200 C 398.007 9.200,398.000 9.173,398.000 5.600 L 398.000 2.000 394.400 2.000 C 390.827 2.000,390.800 1.993,390.800 1.000 L 390.800 0.000 200.000 0.000 L 9.200 0.000 9.200 1.000 M348.681 44.202 C 350.075 44.616,351.019 45.209,351.703 46.102 C 352.250 46.816,353.169 47.869,353.745 48.441 C 356.892 51.571,357.223 74.695,354.137 75.880 C 353.842 75.993,353.600 76.319,353.600 76.605 C 353.600 77.436,350.832 80.538,349.443 81.266 C 346.031 83.052,349.290 83.011,225.200 82.800 C 103.802 82.593,102.746 82.606,99.437 84.283 C 98.349 84.834,96.590 85.543,95.528 85.858 C 93.965 86.322,93.493 86.682,93.048 87.747 C 92.746 88.470,91.982 89.438,91.349 89.899 L 90.200 90.736 90.090 150.068 C 89.975 211.897,90.067 216.035,91.574 217.191 C 92.011 217.526,92.651 218.483,92.997 219.317 C 94.167 222.144,90.732 222.050,190.842 222.008 C 281.100 221.970,282.036 221.984,283.684 223.476 C 284.068 223.824,285.506 224.495,286.879 224.968 C 289.117 225.738,289.543 226.069,290.969 228.152 L 292.561 230.475 292.895 235.938 C 293.464 245.246,292.763 254.421,291.445 254.928 C 291.144 255.043,290.307 256.048,289.586 257.162 C 288.865 258.275,287.986 259.277,287.634 259.389 C 287.281 259.501,286.004 260.269,284.796 261.096 L 282.600 262.600 194.000 262.672 C 90.271 262.756,97.882 262.412,93.134 267.235 C 89.792 270.629,89.987 267.994,90.011 309.400 C 90.023 329.860,89.920 347.230,89.782 348.000 C 89.341 350.471,88.746 351.553,87.382 352.357 C 86.649 352.790,85.765 353.694,85.418 354.366 C 84.493 356.153,84.035 356.200,67.400 356.200 C 49.782 356.200,50.662 356.345,47.188 352.871 C 43.339 349.021,43.600 352.726,43.600 302.038 C 43.600 258.918,43.792 250.788,44.947 244.989 C 45.320 243.114,45.320 241.871,44.947 239.389 C 43.606 230.489,43.563 227.365,43.691 149.000 C 43.826 66.943,43.785 68.762,45.556 67.512 C 46.369 66.938,47.359 65.139,47.742 63.540 C 48.228 61.507,54.583 54.903,56.402 54.540 C 57.142 54.392,57.871 53.864,58.271 53.187 C 58.632 52.577,59.812 51.663,60.893 51.156 C 61.975 50.650,63.041 49.897,63.262 49.484 C 63.719 48.630,66.566 47.222,67.862 47.209 C 68.336 47.204,69.460 46.586,70.359 45.834 C 71.809 44.623,72.343 44.439,75.097 44.205 C 76.803 44.060,78.380 43.878,78.600 43.802 C 80.169 43.257,346.830 43.652,348.681 44.202 M326.109 135.685 C 329.954 136.775,331.561 137.434,332.603 138.349 C 333.364 139.017,334.731 139.787,335.640 140.059 C 336.549 140.332,337.789 141.050,338.395 141.657 C 339.001 142.263,339.960 142.875,340.526 143.017 C 341.580 143.282,347.162 148.109,348.600 149.999 C 349.040 150.577,350.037 151.683,350.817 152.455 C 351.637 153.269,352.507 154.708,352.884 155.874 C 353.241 156.981,353.975 158.364,354.515 158.946 C 356.031 160.582,355.992 158.333,355.972 243.800 C 355.952 327.836,355.952 327.810,354.353 329.295 C 353.817 329.793,353.158 330.785,352.889 331.500 C 352.620 332.215,352.212 333.307,351.982 333.927 C 351.249 335.901,342.037 345.040,340.200 345.615 C 339.320 345.890,338.096 346.535,337.481 347.048 C 336.487 347.876,332.999 349.200,331.811 349.200 C 331.566 349.200,330.713 349.817,329.913 350.571 C 328.831 351.591,327.966 352.008,326.530 352.201 C 322.250 352.775,316.098 353.984,314.438 354.578 C 311.912 355.482,126.044 355.538,122.200 354.636 C 114.449 352.818,112.202 352.050,111.400 350.945 C 110.960 350.338,109.921 349.088,109.091 348.167 C 107.066 345.918,106.630 342.478,106.916 331.000 C 107.177 320.479,108.536 317.085,113.386 314.838 C 114.417 314.360,128.405 314.269,206.200 314.232 C 309.113 314.183,301.247 314.420,305.253 311.237 C 306.434 310.298,307.940 308.877,308.600 308.079 L 309.800 306.628 309.800 244.614 C 309.800 175.805,310.012 180.875,307.043 178.827 C 306.139 178.203,305.040 177.294,304.601 176.806 C 302.457 174.425,310.167 174.619,209.200 174.400 C 140.425 174.251,116.796 174.082,116.196 173.737 C 115.753 173.482,115.056 172.904,114.647 172.452 C 114.238 172.000,113.286 171.426,112.531 171.177 C 110.945 170.654,108.344 167.598,107.533 165.306 C 106.566 162.574,106.785 142.931,107.800 141.366 C 108.240 140.688,109.013 139.489,109.519 138.701 C 110.220 137.609,111.073 137.016,113.119 136.198 C 114.593 135.609,115.980 134.983,116.200 134.806 C 116.420 134.630,116.960 134.396,117.400 134.287 C 117.840 134.177,163.830 134.121,219.600 134.162 L 321.000 134.236 326.109 135.685 " stroke="none" fill="#c4040c" fill-rule="evenodd"></path><path id="path4" d="M78.600 43.802 C 78.380 43.878,76.803 44.060,75.097 44.205 C 72.343 44.439,71.809 44.623,70.359 45.834 C 69.460 46.586,68.336 47.204,67.862 47.209 C 66.566 47.222,63.719 48.630,63.262 49.484 C 63.041 49.897,61.975 50.650,60.893 51.156 C 59.812 51.663,58.632 52.577,58.271 53.187 C 57.871 53.864,57.142 54.392,56.402 54.540 C 54.583 54.903,48.228 61.507,47.742 63.540 C 47.359 65.139,46.369 66.938,45.556 67.512 C 43.785 68.762,43.826 66.943,43.691 149.000 C 43.563 227.365,43.606 230.489,44.947 239.389 C 45.320 241.871,45.320 243.114,44.947 244.989 C 43.792 250.788,43.600 258.918,43.600 302.038 C 43.600 352.726,43.339 349.021,47.188 352.871 C 50.662 356.345,49.782 356.200,67.400 356.200 C 84.035 356.200,84.493 356.153,85.418 354.366 C 85.765 353.694,86.649 352.790,87.382 352.357 C 88.746 351.553,89.341 350.471,89.782 348.000 C 89.920 347.230,90.023 329.860,90.011 309.400 C 89.987 267.994,89.792 270.629,93.134 267.235 C 97.882 262.412,90.271 262.756,194.000 262.672 L 282.600 262.600 284.796 261.096 C 286.004 260.269,287.281 259.501,287.634 259.389 C 287.986 259.277,288.865 258.275,289.586 257.162 C 290.307 256.048,291.144 255.043,291.445 254.928 C 292.763 254.421,293.464 245.246,292.895 235.938 L 292.561 230.475 290.969 228.152 C 289.543 226.069,289.117 225.738,286.879 224.968 C 285.506 224.495,284.068 223.824,283.684 223.476 C 282.036 221.984,281.100 221.970,190.842 222.008 C 90.732 222.050,94.167 222.144,92.997 219.317 C 92.651 218.483,92.011 217.526,91.574 217.191 C 90.067 216.035,89.975 211.897,90.090 150.068 L 90.200 90.736 91.349 89.899 C 91.982 89.438,92.746 88.470,93.048 87.747 C 93.493 86.682,93.965 86.322,95.528 85.858 C 96.590 85.543,98.349 84.834,99.437 84.283 C 102.746 82.606,103.802 82.593,225.200 82.800 C 349.290 83.011,346.031 83.052,349.443 81.266 C 350.832 80.538,353.600 77.436,353.600 76.605 C 353.600 76.319,353.842 75.993,354.137 75.880 C 355.716 75.273,356.000 73.257,356.000 62.627 C 356.000 51.506,355.845 50.530,353.745 48.441 C 353.169 47.869,352.250 46.816,351.703 46.102 C 349.632 43.400,360.716 43.597,212.827 43.632 C 139.222 43.649,78.820 43.726,78.600 43.802 M348.775 46.388 C 351.371 47.698,352.352 48.833,353.579 51.947 C 354.694 54.776,354.828 70.975,353.755 73.239 C 351.985 76.972,350.718 78.312,347.557 79.796 L 344.488 81.236 225.130 81.209 C 107.377 81.183,105.721 81.193,101.894 81.981 C 93.573 83.693,90.148 86.768,89.232 93.350 C 88.555 98.220,88.674 207.752,89.363 213.000 C 90.128 218.834,92.594 222.783,95.489 222.810 C 96.100 222.816,98.130 223.171,100.000 223.600 C 103.314 224.360,105.626 224.380,191.816 224.390 C 269.973 224.399,280.509 224.471,282.616 225.014 C 289.339 226.745,290.364 228.267,290.768 237.115 C 291.435 251.708,290.325 255.901,284.961 259.044 C 281.989 260.786,280.493 260.812,189.365 260.753 L 102.530 260.697 98.391 262.248 C 95.010 263.516,93.871 264.166,92.170 265.800 C 88.842 268.997,89.001 266.848,88.991 308.800 C 88.981 350.862,89.173 348.384,85.650 351.975 C 82.800 354.880,83.399 354.790,66.874 354.796 C 50.221 354.801,48.430 354.220,46.004 348.024 L 45.152 345.848 45.301 299.824 C 45.423 262.207,45.550 253.508,45.998 252.200 C 46.799 249.860,46.800 236.269,46.000 232.800 C 45.478 230.536,45.400 220.044,45.400 151.600 L 45.400 73.000 46.453 69.953 C 48.142 65.072,52.580 59.140,56.829 56.088 C 57.662 55.490,59.633 54.063,61.209 52.918 C 65.448 49.838,71.376 46.919,74.429 46.408 C 75.843 46.172,77.630 45.822,78.400 45.630 C 79.179 45.436,138.920 45.264,213.111 45.241 L 346.423 45.200 348.775 46.388 M117.400 134.287 C 116.960 134.396,116.420 134.630,116.200 134.806 C 115.980 134.983,114.593 135.609,113.119 136.198 C 111.073 137.016,110.220 137.609,109.519 138.701 C 109.013 139.489,108.240 140.688,107.800 141.366 C 106.785 142.931,106.566 162.574,107.533 165.306 C 108.344 167.598,110.945 170.654,112.531 171.177 C 113.286 171.426,114.238 172.000,114.647 172.452 C 115.056 172.904,115.753 173.482,116.196 173.737 C 116.796 174.082,140.425 174.251,209.200 174.400 C 310.167 174.619,302.457 174.425,304.601 176.806 C 305.040 177.294,306.139 178.203,307.043 178.827 C 310.012 180.875,309.800 175.805,309.800 244.614 L 309.800 306.628 308.600 308.079 C 307.940 308.877,306.434 310.298,305.253 311.237 C 301.247 314.420,309.113 314.183,206.200 314.232 C 128.405 314.269,114.417 314.360,113.386 314.838 C 108.536 317.085,107.177 320.479,106.916 331.000 C 106.630 342.478,107.066 345.918,109.091 348.167 C 109.921 349.088,110.960 350.338,111.400 350.945 C 112.202 352.050,114.449 352.818,122.200 354.636 C 126.044 355.538,311.912 355.482,314.438 354.578 C 316.098 353.984,322.250 352.775,326.530 352.201 C 327.966 352.008,328.831 351.591,329.913 350.571 C 330.713 349.817,331.566 349.200,331.811 349.200 C 332.999 349.200,336.487 347.876,337.481 347.048 C 338.096 346.535,339.320 345.890,340.200 345.615 C 342.037 345.040,351.249 335.901,351.982 333.927 C 352.212 333.307,352.620 332.215,352.889 331.500 C 353.158 330.785,353.817 329.793,354.353 329.295 C 355.952 327.810,355.952 327.836,355.972 243.800 C 355.992 158.333,356.031 160.582,354.515 158.946 C 353.975 158.364,353.241 156.981,352.884 155.874 C 352.507 154.708,351.637 153.269,350.817 152.455 C 350.037 151.683,349.040 150.577,348.600 149.999 C 347.162 148.109,341.580 143.282,340.526 143.017 C 339.960 142.875,339.001 142.263,338.395 141.657 C 337.789 141.050,336.549 140.332,335.640 140.059 C 334.731 139.787,333.364 139.017,332.603 138.349 C 331.561 137.434,329.954 136.775,326.109 135.685 L 321.000 134.236 219.600 134.162 C 163.830 134.121,117.840 134.177,117.400 134.287 M326.400 137.335 C 327.830 137.960,329.881 138.824,330.957 139.256 C 332.033 139.687,333.653 140.547,334.557 141.167 C 335.461 141.787,337.305 142.850,338.656 143.530 C 342.875 145.655,349.391 152.628,352.275 158.104 L 353.800 161.000 353.800 243.800 C 353.800 336.549,354.109 327.119,350.915 331.975 C 345.862 339.659,340.822 344.088,334.349 346.533 C 332.947 347.062,330.852 348.056,329.694 348.741 C 328.345 349.539,326.190 350.283,323.694 350.813 C 321.552 351.267,318.450 351.937,316.800 352.300 C 313.225 353.086,132.630 353.593,124.196 352.841 C 116.664 352.168,113.133 350.704,110.469 347.147 C 107.181 342.757,108.058 322.279,111.695 318.508 C 114.415 315.688,107.357 315.885,207.000 315.840 L 296.600 315.800 301.400 314.495 C 307.487 312.840,309.469 311.150,310.427 306.800 C 311.262 303.009,311.284 186.552,310.451 182.000 C 309.808 178.491,308.477 176.944,304.104 174.622 C 299.943 172.412,300.628 172.429,205.200 172.216 C 157.350 172.109,117.750 171.897,117.200 171.744 C 114.556 171.012,110.657 167.802,110.015 165.829 C 108.401 160.873,108.024 153.803,108.972 146.251 C 109.644 140.891,110.599 139.262,114.212 137.309 L 116.600 136.017 220.200 136.109 L 323.800 136.200 326.400 137.335 " stroke="none" fill="#d43444" fill-rule="evenodd"></path></g></svg>